<?xml version="1.0" encoding="UTF-8"?>
<svg version="1.1" xmlns="http://www.w3.org/2000/svg" width="40" height="40">
<path d="M0 0 C13.2 0 26.4 0 40 0 C40 13.2 40 26.4 40 40 C26.8 40 13.6 40 0 40 C0 26.8 0 13.6 0 0 Z " fill="#AEE8F9" transform="translate(0,0)"/>
<path d="M0 0 C0.99 0.33 1.98 0.66 3 1 C2.67 1.33 2.34 1.66 2 2 C1.76321284 4.69235776 1.57801975 7.36498156 1.4375 10.0625 C1.39431641 10.82111328 1.35113281 11.57972656 1.30664062 12.36132812 C1.20026367 14.24065438 1.09960066 16.12030244 1 18 C2.32 17.67 3.64 17.34 5 17 C5 16.34 5 15.68 5 15 C7.0625 14.625 7.0625 14.625 10 15 C11.86829963 16.45548627 13.55332576 18.04970848 15.28515625 19.6640625 C17.02996722 21.25744255 17.02996722 21.25744255 19.9375 21.375 C20.618125 21.25125 21.29875 21.1275 22 21 C22.33 20.01 22.66 19.02 23 18 C25.24053658 19.04024912 27.07441913 20.06046554 29 21.625 C31.14485112 23.37768588 31.14485112 23.37768588 35 23 C34.505 24.485 34.505 24.485 34 26 C33.278125 25.690625 32.55625 25.38125 31.8125 25.0625 C29.18306945 24.06915957 26.78080588 23.38622304 24 23 C22.72996677 24.05310277 22.72996677 24.05310277 22.8125 26.4375 C22.73160017 29.16734675 22.73160017 29.16734675 25 31 C25.625 33.625 25.625 33.625 26 36 C24.515 36.495 24.515 36.495 23 37 C22.67 37.99 22.34 38.98 22 40 C14.74 40 7.48 40 0 40 C0 26.8 0 13.6 0 0 Z " fill="#E6F9F8" transform="translate(0,0)"/>
<path d="M0 0 C1.38294718 0.01329757 2.76582404 0.03715018 4.1484375 0.0703125 C4.85484375 0.07933594 5.56125 0.08835938 6.2890625 0.09765625 C8.03399848 0.12123647 9.77876045 0.15710789 11.5234375 0.1953125 C11.8534375 1.1853125 12.1834375 2.1753125 12.5234375 3.1953125 C12.1934375 3.8553125 11.8634375 4.5153125 11.5234375 5.1953125 C10.8634375 5.1953125 10.2034375 5.1953125 9.5234375 5.1953125 C9.8534375 6.0615625 10.1834375 6.9278125 10.5234375 7.8203125 C11.51575729 11.1693918 11.76533521 13.72811193 11.5234375 17.1953125 C10.5234375 18.1953125 10.5234375 18.1953125 8.0859375 18.3828125 C5.5234375 18.1953125 5.5234375 18.1953125 3.5234375 16.1953125 C0.95282439 15.54763457 0.95282439 15.54763457 -1.4765625 15.1953125 C-1.4765625 15.8553125 -1.4765625 16.5153125 -1.4765625 17.1953125 C-2.7965625 17.5253125 -4.1165625 17.8553125 -5.4765625 18.1953125 C-5.53038356 15.57004061 -5.57014563 12.94586537 -5.6015625 10.3203125 C-5.61832031 9.57394531 -5.63507812 8.82757813 -5.65234375 8.05859375 C-5.6699584 6.10336789 -5.57976439 4.14789229 -5.4765625 2.1953125 C-3.4765625 0.1953125 -3.4765625 0.1953125 0 0 Z " fill="#72BF4D" transform="translate(6.4765625,-0.1953125)"/>
<path d="M0 0 C0.556875 0.350625 1.11375 0.70125 1.6875 1.0625 C4.60812085 2.24653548 5.98962428 1.80766178 9 1 C11.6875 0.3125 11.6875 0.3125 14 0 C16 2 16 2 16.25 4.25 C15.96379343 7.39827227 15.09940961 10.04533667 14 13 C14.66 13 15.32 13 16 13 C16.5625 14.9375 16.5625 14.9375 17 17 C15.01880645 18.98119355 11.26554936 18.18500411 8.5625 18.1875 C7.52125977 18.20586914 7.52125977 18.20586914 6.45898438 18.22460938 C4.63779099 18.22989842 2.8171308 18.12169207 1 18 C-1 16 -1 16 -1.23046875 12.55859375 C-1.22647911 11.18482696 -1.21173177 9.81105886 -1.1875 8.4375 C-1.18685547 7.73947266 -1.18621094 7.04144531 -1.18554688 6.32226562 C-1.14031158 1.14031158 -1.14031158 1.14031158 0 0 Z " fill="#11C1CD" transform="translate(2,22)"/>
<path d="M0 0 C3.58588324 0.38766305 6.69987921 1.58566252 10 3 C10.33 2.34 10.66 1.68 11 1 C12.32 1 13.64 1 15 1 C15.05383848 3.45862401 15.09359038 5.9160755 15.125 8.375 C15.14175781 9.07367188 15.15851562 9.77234375 15.17578125 10.4921875 C15.19344267 12.32897486 15.10303261 14.16601963 15 16 C13 18 13 18 9.5234375 18.1953125 C8.14049032 18.18201493 6.75761346 18.15816232 5.375 18.125 C4.31539062 18.11146484 4.31539062 18.11146484 3.234375 18.09765625 C1.48943902 18.07407603 -0.25532295 18.03820461 -2 18 C-1.625 16.0625 -1.625 16.0625 -1 14 C-0.34 13.67 0.32 13.34 1 13 C-0.08784968 9.75016865 -0.08784968 9.75016865 -2 7 C-2.1875 4.5625 -2.1875 4.5625 -2 2 C-1.34 1.34 -0.68 0.68 0 0 Z " fill="#F4763E" transform="translate(24,22)"/>
<path d="M0 0 C2.64590014 -0.02684679 5.29153096 -0.04676357 7.9375 -0.0625 C8.69224609 -0.07087891 9.44699219 -0.07925781 10.22460938 -0.08789062 C12.14994313 -0.09652441 14.07535581 -0.05224333 16 0 C17 1 17 1 17.09765625 4.59765625 C17.0909822 6.08596867 17.07902183 7.57426432 17.0625 9.0625 C17.05798828 9.82111328 17.05347656 10.57972656 17.04882812 11.36132812 C17.0370068 13.24091871 17.01907078 15.12046899 17 17 C15.68 17 14.36 17 13 17 C13 16.01 13 15.02 13 14 C12.113125 14.309375 11.22625 14.61875 10.3125 14.9375 C4.88 16.68 4.88 16.68 2 17 C0 15 0 15 -0.25 12.5 C0 10 0 10 2 8 C2.6425235 5.93125966 2.6425235 5.93125966 3 4 C3.99 4.33 4.98 4.66 6 5 C6.33 5.99 6.66 6.98 7 8 C7.6496875 7.01 7.6496875 7.01 8.3125 6 C8.869375 5.34 9.42625 4.68 10 4 C10.99 4 11.98 4 13 4 C13.33 3.01 13.66 2.02 14 1 C9.38 1 4.76 1 0 1 C0 0.67 0 0.34 0 0 Z " fill="#058FF4" transform="translate(22,1)"/>
<path d="M0 0 C5.94 0 11.88 0 18 0 C18 13.2 18 26.4 18 40 C16.515 39.505 16.515 39.505 15 39 C15.495 38.505 15.495 38.505 16 38 C16.23653523 35.47403741 16.42173692 32.96892793 16.5625 30.4375 C16.60568359 29.72658203 16.64886719 29.01566406 16.69335938 28.28320312 C16.79971777 26.52238088 16.90038846 24.7612168 17 23 C15.80375 23.268125 14.6075 23.53625 13.375 23.8125 C10.75060729 24.16740008 9.46492875 24.26067135 7.1328125 22.953125 C5.5 21.5625 5.5 21.5625 3 19 C7.30769231 15.06153846 7.30769231 15.06153846 10.8125 14.75 C11.534375 14.8325 12.25625 14.915 13 15 C13 15.99 13 16.98 13 18 C14.32 18 15.64 18 17 18 C16.67 12.72 16.34 7.44 16 2 C10.72 1.67 5.44 1.34 0 1 C0 0.67 0 0.34 0 0 Z " fill="#87B4CD" transform="translate(22,0)"/>
<path d="M0 0 C0.99 0.33 1.98 0.66 3 1 C2.67 1.33 2.34 1.66 2 2 C1.76321284 4.69235776 1.57801975 7.36498156 1.4375 10.0625 C1.39431641 10.82111328 1.35113281 11.57972656 1.30664062 12.36132812 C1.20026367 14.24065438 1.09960066 16.12030244 1 18 C2.32 17.67 3.64 17.34 5 17 C5 16.34 5 15.68 5 15 C7.375 14.8125 7.375 14.8125 10 15 C10.99 16.485 10.99 16.485 12 18 C9.94766315 20.2477975 8.99332739 21.0022242 6 22 C5.67 22.66 5.34 23.32 5 24 C4.01 23.67 3.02 23.34 2 23 C1.97308315 25.45840605 1.95320198 27.91651882 1.9375 30.375 C1.92912109 31.07367187 1.92074219 31.77234375 1.91210938 32.4921875 C1.8164558 36.37295376 1.8164558 36.37295376 3 40 C2.01 40 1.02 40 0 40 C0 26.8 0 13.6 0 0 Z " fill="#AECAD5" transform="translate(0,0)"/>
<path d="M0 0 C6.70459519 5.0940919 6.70459519 5.0940919 7.9375 8.875 C7.958125 9.57625 7.97875 10.2775 8 11 C7.01 11.33 6.02 11.66 5 12 C4.67 12.99 4.34 13.98 4 15 C2.68 14.67 1.36 14.34 0 14 C0 12.68 0 11.36 0 10 C-0.66 10 -1.32 10 -2 10 C-2.22036864 6.14354879 -1.60355101 3.50776784 0 0 Z " fill="#D5F7FD" transform="translate(18,25)"/>
<path d="M0 0 C1.38294718 0.01329757 2.76582404 0.03715018 4.1484375 0.0703125 C4.85484375 0.07933594 5.56125 0.08835938 6.2890625 0.09765625 C8.03399848 0.12123647 9.77876045 0.15710789 11.5234375 0.1953125 C11.8534375 1.1853125 12.1834375 2.1753125 12.5234375 3.1953125 C7.2434375 3.1953125 1.9634375 3.1953125 -3.4765625 3.1953125 C-3.4765625 8.1453125 -3.4765625 13.0953125 -3.4765625 18.1953125 C-4.1365625 18.1953125 -4.7965625 18.1953125 -5.4765625 18.1953125 C-5.53038356 15.57004061 -5.57014563 12.94586537 -5.6015625 10.3203125 C-5.61832031 9.57394531 -5.63507812 8.82757813 -5.65234375 8.05859375 C-5.6699584 6.10336789 -5.57976439 4.14789229 -5.4765625 2.1953125 C-3.4765625 0.1953125 -3.4765625 0.1953125 0 0 Z " fill="#2F4D80" transform="translate(6.4765625,-0.1953125)"/>
<path d="M0 0 C0.66 0 1.32 0 2 0 C2 4.62 2 9.24 2 14 C7.28 14 12.56 14 18 14 C17.67 14.99 17.34 15.98 17 17 C14.54137599 17.05383848 12.0839245 17.09359038 9.625 17.125 C8.57699219 17.15013672 8.57699219 17.15013672 7.5078125 17.17578125 C5.67102514 17.19344267 3.83398037 17.10303261 2 17 C0 15 0 15 -0.1953125 11.5234375 C-0.18201493 10.14049032 -0.15816232 8.75761346 -0.125 7.375 C-0.11597656 6.66859375 -0.10695312 5.9621875 -0.09765625 5.234375 C-0.07407603 3.48943902 -0.03820461 1.74467705 0 0 Z " fill="#1B254A" transform="translate(1,23)"/>
<path d="M0 0 C0.99 0 1.98 0 3 0 C4.58593284 4.1630737 5.31121486 7.53925362 5 12 C4 13 4 13 1.5625 13.1875 C-1 13 -1 13 -3 11 C-5.57061311 10.35232207 -5.57061311 10.35232207 -8 10 C-7.67 9.01 -7.34 8.02 -7 7 C-3.65626525 7.55728913 -0.96687001 8.35173889 2 10 C1.505 8.9171875 1.505 8.9171875 1 7.8125 C-0.00603529 4.98302573 -0.16977402 2.97104534 0 0 Z " fill="#1C2A5B" transform="translate(13,5)"/>
<path d="M0 0 C3.58588324 0.38766305 6.69987921 1.58566252 10 3 C10 3.99 10 4.98 10 6 C8.35 6 6.7 6 5 6 C4.67 5.01 4.34 4.02 4 3 C3.01 3 2.02 3 1 3 C1.33 3.53625 1.66 4.0725 2 4.625 C3.22699204 7.5391061 3.14233286 9.86867708 3 13 C2.34 13 1.68 13 1 13 C0.690625 12.195625 0.38125 11.39125 0.0625 10.5625 C-0.76335345 8.10919595 -0.76335345 8.10919595 -2 7 C-2.1875 4.5625 -2.1875 4.5625 -2 2 C-1.34 1.34 -0.68 0.68 0 0 Z " fill="#2A385A" transform="translate(24,22)"/>
<path d="M0 0 C4.95 0.33 9.9 0.66 15 1 C14.67 2.32 14.34 3.64 14 5 C13.01 5 12.02 5 11 5 C8.81222534 6.9375006 8.81222534 6.9375006 7 9 C6.87625 8.360625 6.7525 7.72125 6.625 7.0625 C6.41875 6.381875 6.2125 5.70125 6 5 C5.34 4.67 4.68 4.34 4 4 C3.67 5.32 3.34 6.64 3 8 C3 6.68 3 5.36 3 4 C2.34 4 1.68 4 1 4 C0.67 2.68 0.34 1.36 0 0 Z " fill="#2DBCE0" transform="translate(21,1)"/>
<path d="M0 0 C0.66 0 1.32 0 2 0 C2.05383848 2.45862401 2.09359038 4.9160755 2.125 7.375 C2.14175781 8.07367188 2.15851562 8.77234375 2.17578125 9.4921875 C2.19344267 11.32897486 2.10303261 13.16601963 2 15 C0 17 0 17 -3.4765625 17.1953125 C-4.85950968 17.18201493 -6.24238654 17.15816232 -7.625 17.125 C-8.68460938 17.11146484 -8.68460938 17.11146484 -9.765625 17.09765625 C-11.51056098 17.07407603 -13.25532295 17.03820461 -15 17 C-15 16.34 -15 15.68 -15 15 C-10.38 14.67 -5.76 14.34 -1 14 C-0.67 9.38 -0.34 4.76 0 0 Z " fill="#111035" transform="translate(37,23)"/>
<path d="M0 0 C0.66 0 1.32 0 2 0 C1.54177532 3.46941546 1.10868317 6.67395049 0 10 C0.721875 9.484375 1.44375 8.96875 2.1875 8.4375 C5.4195366 6.78557018 6.61608307 6.93648325 10 8 C10 8.66 10 9.32 10 10 C2.52173913 12.60869565 2.52173913 12.60869565 -1 13 C-3 11 -3 11 -3.25 8.5 C-3 6 -3 6 -1 4 C-0.3574765 1.93125966 -0.3574765 1.93125966 0 0 Z " fill="#21385F" transform="translate(25,5)"/>
<path d="M0 0 C4.875 0.875 4.875 0.875 6 2 C6.1875 4.4375 6.1875 4.4375 6 7 C5.34 7.66 4.68 8.32 4 9 C3.3574765 11.06874034 3.3574765 11.06874034 3 13 C2.34 13 1.68 13 1 13 C0.77963136 9.14354879 1.39644899 6.50776784 3 3 C2.01 3 1.02 3 0 3 C-0.33 3.99 -0.66 4.98 -1 6 C-2.65 6 -4.3 6 -6 6 C-6 5.34 -6 4.68 -6 4 C-4.68 4 -3.36 4 -2 4 C-1.34 2.68 -0.68 1.36 0 0 Z " fill="#234168" transform="translate(12,22)"/>
<path d="M0 0 C2.66666667 1.33333333 5.33333333 2.66666667 8 4 C6.68 4 5.36 4 4 4 C4 4.66 4 5.32 4 6 C5.32 6.33 6.64 6.66 8 7 C7.01 8.485 7.01 8.485 6 10 C6 10.99 6 11.98 6 13 C5.01 13 4.02 13 3 13 C2.34 13.66 1.68 14.32 1 15 C0.67 10.05 0.34 5.1 0 0 Z " fill="#44BC85" transform="translate(2,22)"/>
<path d="M0 0 C2.64590014 -0.02684679 5.29153096 -0.04676357 7.9375 -0.0625 C8.69224609 -0.07087891 9.44699219 -0.07925781 10.22460938 -0.08789062 C12.14994313 -0.09652441 14.07535581 -0.05224333 16 0 C17 1 17 1 17.09765625 4.59765625 C17.0909822 6.08596867 17.07902183 7.57426432 17.0625 9.0625 C17.05798828 9.82111328 17.05347656 10.57972656 17.04882812 11.36132812 C17.0370068 13.24091871 17.01907078 15.12046899 17 17 C16.34 17 15.68 17 15 17 C14.67 12.05 14.34 7.1 14 2 C7.07 1.505 7.07 1.505 0 1 C0 0.67 0 0.34 0 0 Z " fill="#131944" transform="translate(22,1)"/>
<path d="M0 0 C0.33 0 0.66 0 1 0 C1.09765625 6.15234375 1.09765625 6.15234375 1 8 C0 9 0 9 -3.16015625 9.09765625 C-5.09181641 9.08025391 -5.09181641 9.08025391 -7.0625 9.0625 C-8.35285156 9.05347656 -9.64320312 9.04445313 -10.97265625 9.03515625 C-11.97167969 9.02355469 -12.97070312 9.01195312 -14 9 C-14 8.67 -14 8.34 -14 8 C-11.03 8 -8.06 8 -5 8 C-4.67 6.35 -4.34 4.7 -4 3 C-3.01 2.67 -2.02 2.34 -1 2 C-0.67 1.34 -0.34 0.68 0 0 Z " fill="#9E3653" transform="translate(36,29)"/>
<path d="M0 0 C4.62 0 9.24 0 14 0 C14 0.33 14 0.66 14 1 C13.05125 1.103125 12.1025 1.20625 11.125 1.3125 C7.70892499 1.68539295 7.70892499 1.68539295 6 5 C5.67 4.34 5.34 3.68 5 3 C4.01 2.67 3.02 2.34 2 2 C2.7763932 5.0745356 2.7763932 5.0745356 5 7 C4.01 7.33 3.02 7.66 2 8 C1.67 9.65 1.34 11.3 1 13 C0.67 13 0.34 13 0 13 C0 8.71 0 4.42 0 0 Z " fill="#C5F566" transform="translate(3,3)"/>
<path d="M0 0 C2.375 -0.1875 2.375 -0.1875 5 0 C5.66 0.99 6.32 1.98 7 3 C5.19873295 5.27528469 4.3633843 5.94682181 1.4375 6.375 C0.2309375 6.189375 0.2309375 6.189375 -1 6 C-1.66 5.01 -2.32 4.02 -3 3 C-2.01 2.67 -1.02 2.34 0 2 C0 1.34 0 0.68 0 0 Z " fill="#93DDF7" transform="translate(5,15)"/>
<path d="M0 0 C0.33 0.66 0.66 1.32 1 2 C-0.65 2 -2.3 2 -4 2 C-3.67 2.9075 -3.34 3.815 -3 4.75 C-2 8 -2 8 -2 12 C-3.875 11.75 -3.875 11.75 -6 11 C-7.25 8.9375 -7.25 8.9375 -8 7 C-7.01 6.67 -6.02 6.34 -5 6 C-5.66 4.68 -6.32 3.36 -7 2 C-4.69 1.34 -2.38 0.68 0 0 Z " fill="#63E051" transform="translate(17,3)"/>
<path d="M0 0 C1.32 0.33 2.64 0.66 4 1 C3.50769231 7.52307692 3.50769231 7.52307692 0.9375 9.9375 C0.298125 10.288125 -0.34125 10.63875 -1 11 C-2 10 -2 10 -2.0625 7.4375 C-2.041875 6.633125 -2.02125 5.82875 -2 5 C-1.34 5 -0.68 5 0 5 C0 3.35 0 1.7 0 0 Z " fill="#8CDAFA" transform="translate(18,0)"/>
<path d="M0 0 C0.33 0.66 0.66 1.32 1 2 C1.66 2 2.32 2 3 2 C3.22036864 5.85645121 2.60355101 8.49223216 1 12 C-0.32 11.01 -1.64 10.02 -3 9 C-2.01 6.03 -1.02 3.06 0 0 Z " fill="#DAF8FD" transform="translate(21,3)"/>
<path d="M0 0 C0.99 0 1.98 0 3 0 C3.33 0.66 3.66 1.32 4 2 C6.52733235 2.65555119 6.52733235 2.65555119 9 3 C7.35 4.98 5.7 6.96 4 9 C0 3 0 3 0 0 Z " fill="#F9A72C" transform="translate(25,25)"/>
<path d="M0 0 C0.99 0.66 1.98 1.32 3 2 C3.375 4.4375 3.375 4.4375 3 7 C1.625 8.8125 1.625 8.8125 0 10 C-0.66 10 -1.32 10 -2 10 C-2.22036864 6.14354879 -1.60355101 3.50776784 0 0 Z " fill="#80D8F9" transform="translate(18,25)"/>
<path d="M0 0 C0 0.66 0 1.32 0 2 C-2.97411124 3.23921302 -5.85262818 4.30058404 -9 5 C-8.75 3.125 -8.75 3.125 -8 1 C-5.08518252 -1.1107299 -3.34823603 -1.19579858 0 0 Z " fill="#04B2F8" transform="translate(34,10)"/>
<path d="M0 0 C0.99 0 1.98 0 3 0 C2.67 1.65 2.34 3.3 2 5 C1.071875 5.12375 1.071875 5.12375 0.125 5.25 C-2.18437567 5.81258459 -2.18437567 5.81258459 -3.25 8.0625 C-3.4975 8.701875 -3.745 9.34125 -4 10 C-4 9.01 -4 8.02 -4 7 C-4.66 6.67 -5.32 6.34 -6 6 C-5.195625 5.38125 -4.39125 4.7625 -3.5625 4.125 C-0.96125481 2.25835959 -0.96125481 2.25835959 0 0 Z " fill="#14D6A6" transform="translate(12,25)"/>
<path d="M0 0 C-1.25 2.5 -1.25 2.5 -3 5 C-4.32 5 -5.64 5 -7 5 C-7.33 3.68 -7.66 2.36 -8 1 C-3.375 -1.125 -3.375 -1.125 0 0 Z " fill="#DAF8FC" transform="translate(13,20)"/>
<path d="M0 0 C0 1.98 0 3.96 0 6 C0.66 6.33 1.32 6.66 2 7 C0.02 7 -1.96 7 -4 7 C-4.1875 4.625 -4.1875 4.625 -4 2 C-1 0 -1 0 0 0 Z " fill="#05CBBE" transform="translate(13,29)"/>
<path d="M0 0 C3.02419525 0.58803797 6.01758453 1.22678118 9 2 C9 2.99 9 3.98 9 5 C6.75 5.3125 6.75 5.3125 4 5 C1.6875 2.5 1.6875 2.5 0 0 Z " fill="#212E57" transform="translate(25,23)"/>
<path d="M0 0 C1.0828125 0.37125 1.0828125 0.37125 2.1875 0.75 C2.1875 1.41 2.1875 2.07 2.1875 2.75 C-4.09821429 5.17857143 -4.09821429 5.17857143 -7.8125 3.75 C-3.50480769 -0.31153846 -3.50480769 -0.31153846 0 0 Z " fill="#1A1F44" transform="translate(32.8125,12.25)"/>
<path d="M0 0 C0.99 0 1.98 0 3 0 C3 1.32 3 2.64 3 4 C1.35 4 -0.3 4 -2 4 C-1.34 2.68 -0.68 1.36 0 0 Z M-5 1 C-4.34 2.32 -3.68 3.64 -3 5 C-3.99 5 -4.98 5 -6 5 C-5.67 3.68 -5.34 2.36 -5 1 Z " fill="#1C76A1" transform="translate(32,5)"/>
<path d="M0 0 C0.66 0.33 1.32 0.66 2 1 C2 2.98 2 4.96 2 7 C0.02 7.33 -1.96 7.66 -4 8 C-4.33 7.34 -4.66 6.68 -5 6 C-3.68 5.67 -2.36 5.34 -1 5 C-0.67 3.35 -0.34 1.7 0 0 Z " fill="#6ACEFA" transform="translate(18,12)"/>
<path d="M0 0 C0.66 1.32 1.32 2.64 2 4 C1.01 4.66 0.02 5.32 -1 6 C-1.33 6.99 -1.66 7.98 -2 9 C-3.32 8.67 -4.64 8.34 -6 8 C-5.67 7.01 -5.34 6.02 -5 5 C-3.35 4.67 -1.7 4.34 0 4 C0 2.68 0 1.36 0 0 Z " fill="#B6CAC3" transform="translate(24,31)"/>
<path d="M0 0 C-1.53781946 3.07563891 -3.91244223 3.70322574 -7 5 C-7.99 4.67 -8.98 4.34 -10 4 C-6.58908673 0.88145073 -4.68377325 -0.53528837 0 0 Z " fill="#5BBFF0" transform="translate(35,15)"/>
<path d="M0 0 C4.19115285 0.58210456 5.37542083 1.28156562 9 4 C5.7 3.67 2.4 3.34 -1 3 C-0.67 2.01 -0.34 1.02 0 0 Z " fill="#20374D" transform="translate(6,12)"/>
<path d="M0 0 C0.99 0 1.98 0 3 0 C4.23076923 5.41538462 4.23076923 5.41538462 3.0625 8.375 C2.711875 8.91125 2.36125 9.4475 2 10 C0.39644899 6.49223216 -0.22036864 3.85645121 0 0 Z " fill="#1F395D" transform="translate(13,5)"/>
<path d="M0 0 C1.65 0 3.3 0 5 0 C4.34 1.32 3.68 2.64 3 4 C1.02 4 -0.96 4 -3 4 C-2.67 3.34 -2.34 2.68 -2 2 C-1.34 2 -0.68 2 0 2 C0 1.34 0 0.68 0 0 Z " fill="#51C0E5" transform="translate(5,15)"/>
<path d="M0 0 C1.32 0.66 2.64 1.32 4 2 C3.01 2 2.02 2 1 2 C0.67 2.99 0.34 3.98 0 5 C-1.65 5 -3.3 5 -5 5 C-5 4.34 -5 3.68 -5 3 C-3.68 3 -2.36 3 -1 3 C-0.67 2.01 -0.34 1.02 0 0 Z " fill="#243056" transform="translate(11,23)"/>
<path d="M0 0 C0.66 0.66 1.32 1.32 2 2 C1.01 3.485 1.01 3.485 0 5 C-3.125 5.1875 -3.125 5.1875 -6 5 C-4.62308038 2.24616077 -2.63279958 1.48516899 0 0 Z " fill="#9CE2FC" transform="translate(33,16)"/>
<path d="M0 0 C1.0326802 2.78823655 1.04509293 3.8677274 0.0625 6.75 C-0.288125 7.4925 -0.63875 8.235 -1 9 C-1.66 9 -2.32 9 -3 9 C-3.26218749 5.85375007 -3.24754367 4.38162983 -1.5 1.6875 C-1.005 1.130625 -0.51 0.57375 0 0 Z " fill="#190C30" transform="translate(16,26)"/>
</svg>
